<?xml version="1.0" encoding="UTF-8"?>
<svg version="1.1" xmlns="http://www.w3.org/2000/svg" width="2550" height="2550">
<path d="M0 0 C10.84321123 10.30105066 8.98816802 31.41706985 9.5 45.375 C9.69192089 52.99893828 9.69339406 60.62409905 9.6875 68.25 C9.68789276 69.35988281 9.68828552 70.46976563 9.68869019 71.61328125 C9.68060262 91.23818876 9.15329827 110.83199486 8.49282455 130.44392395 C7.57138177 157.86635808 7.2413134 185.27965178 7.02602005 212.71599197 C5.70019672 380.04904689 5.70019672 380.04904689 -12.4375 454.25 C-12.67347397 455.23060394 -12.67347397 455.23060394 -12.91421509 456.23101807 C-19.76304204 484.42061291 -33.57726165 509.40665164 -58.64453125 525.1171875 C-83.12089086 539.80177853 -114.10880331 541.95479297 -141.5 535.375 C-167.96730551 528.70651635 -190.94961714 515.22914415 -210.5 496.375 C-211.70269531 495.26705078 -211.70269531 495.26705078 -212.9296875 494.13671875 C-218.98399204 488.40712605 -224.66388452 481.81590742 -228.5 474.375 C-228.58910689 470.25062405 -226.71200155 468.07935799 -223.95898438 465.1262207 C-223.47751953 464.63081787 -222.99605469 464.13541504 -222.5 463.625 C-221.75459961 462.83838989 -221.75459961 462.83838989 -220.99414062 462.03588867 C-219.50583708 460.47255062 -218.00394768 458.92327134 -216.5 457.375 C-215.7265625 456.56160156 -214.953125 455.74820312 -214.15625 454.91015625 C-209.13885968 449.73824485 -203.76557516 445.17244175 -198.13085938 440.68945312 C-196.31412087 439.22518365 -194.52380934 437.73187745 -192.734375 436.234375 C-169.36296439 416.76199972 -169.36296439 416.76199972 -159.5 416.375 C-156.39453125 417.16015625 -156.39453125 417.16015625 -153.3125 418.4375 C-152.18714844 418.90027344 -151.06179688 419.36304688 -149.90234375 419.83984375 C-146.6680598 421.29917049 -143.52402303 422.86611159 -140.375 424.5 C-132.17846647 428.66297624 -124.88419567 431.56866348 -115.71484375 429.1640625 C-107.49336627 426.23507052 -102.48263813 419.81347563 -98.8125 412.1875 C-90.34574918 392.07896679 -91.20283723 369.48701955 -91.375 348.0625 C-91.38506674 345.84570724 -91.39418595 343.62890998 -91.40234375 341.41210938 C-91.42402582 336.06630509 -91.45720083 330.72067487 -91.5 325.375 C-92.41386475 325.38370117 -93.32772949 325.39240234 -94.26928711 325.40136719 C-159.39366684 325.75093891 -230.21109669 314.08492585 -278.25 266.66015625 C-303.18500685 240.12775053 -312.49449424 208.99996549 -311.78515625 173.0390625 C-310.80165748 144.30773016 -302.07357709 116.57461234 -288.5 91.375 C-288.17918457 90.76817383 -287.85836914 90.16134766 -287.52783203 89.53613281 C-268.68816238 54.07660222 -238.63478994 31.67158948 -200.82543945 19.73461914 C-146.8867491 3.23626931 -53.88843242 -25.01962934 0 0 Z " fill="#ffffff" transform="translate(1826.5,1091.625)"/>
<path d="M0 0 C0.76103027 0.19303711 1.52206055 0.38607422 2.30615234 0.58496094 C21.09282931 5.57997786 39.38018967 15.21017968 54 28 C54.49999512 28.42603516 54.99999023 28.85207031 55.51513672 29.29101562 C83.49609909 53.19123657 96.64171621 86.38637258 110.09762573 119.75164795 C123.01750447 152.20267051 123.01750447 152.20267051 141 182 C141.39106934 182.53931152 141.78213867 183.07862305 142.18505859 183.63427734 C150.06655561 194.43739068 158.72469104 204.40515042 169 213 C170.00560939 213.87695708 171.00936093 214.75604698 172.01171875 215.63671875 C180.33289142 222.91668176 188.97237704 229.68921779 197.80029297 236.34130859 C225.84829781 257.49093622 253.36469308 279.00014943 271 310 C271.91072266 311.59714844 271.91072266 311.59714844 272.83984375 313.2265625 C286.73285354 339.18855454 289.62709939 369.4646692 281.74609375 397.7890625 C275.59719776 417.97071761 264.96221371 435.32386185 251 451 C250.42765625 451.65742187 249.8553125 452.31484375 249.265625 452.9921875 C230.01099315 473.73557955 200.14474238 484.6258957 172.38793945 486.20556641 C168.71428455 486.30233948 165.04987003 486.32927257 161.375 486.3125 C159.40841431 486.30404053 159.40841431 486.30404053 157.40209961 486.29541016 C146.684915 486.16248996 136.46940839 485.2739555 126 483 C125.14019531 482.81727539 124.28039062 482.63455078 123.39453125 482.44628906 C90.12160509 475.13632801 59.67311177 459.85087606 29.69921875 444.15234375 C7.55187735 432.42338747 7.55187735 432.42338747 -16 424 C-16.70560059 423.79777832 -17.41120117 423.59555664 -18.13818359 423.38720703 C-32.51711066 419.31058779 -46.73668108 417.60392968 -61.6875 417.6875 C-62.38654449 417.68965515 -63.08558899 417.6918103 -63.80581665 417.69403076 C-75.10423955 417.74970942 -85.97604866 418.39825828 -97 421 C-97.7233252 421.16145508 -98.44665039 421.32291016 -99.19189453 421.48925781 C-113.02149218 424.67723973 -126.10841402 430.03188564 -139.2928772 435.18051147 C-192.87935677 456.09363683 -254.95071117 476.72540283 -311.24365234 453.05664062 C-324.38342749 447.14329919 -336.13445849 439.46463836 -347 430 C-347.92039062 429.20722656 -347.92039062 429.20722656 -348.859375 428.3984375 C-364.92631969 413.47913172 -375.32649097 391.86120588 -381 371 C-381.33902344 369.77925781 -381.67804688 368.55851562 -382.02734375 367.30078125 C-386.05337381 349.84228225 -386.05842146 329.22320828 -381 312 C-380.67128906 310.80246094 -380.34257812 309.60492187 -380.00390625 308.37109375 C-373.93075316 288.21831239 -362.32601034 272.1425187 -348 257 C-347.24332031 256.19046875 -346.48664063 255.3809375 -345.70703125 254.546875 C-325.76251332 233.85403095 -299.64907167 219.97427728 -275.21191406 205.32910156 C-257.52335987 194.72420586 -241.14999359 183.06968844 -226 169 C-225.39542969 168.44957031 -224.79085937 167.89914062 -224.16796875 167.33203125 C-204.89921117 149.05604338 -192.38294263 123.12737616 -180.0625 100.0625 C-156.17626398 55.39487609 -129.37274321 17.03332057 -78.9765625 1.4375 C-53.53849986 -6.08820972 -25.70517709 -6.60857299 0 0 Z M-71 43 C-71.680625 43.20898926 -72.36125 43.41797852 -73.0625 43.63330078 C-88.16317152 48.40588517 -101.2555091 56.39831136 -113 67 C-114.35351562 68.21236328 -114.35351562 68.21236328 -115.734375 69.44921875 C-131.57347537 84.41582631 -141.36627533 104.55125649 -151.60424805 123.49975586 C-172.13681581 161.47627106 -195.20331926 183.19291607 -232.296875 205.140625 C-264.17718437 224.01162897 -293.65123905 246.90261723 -303.45703125 284.40234375 C-308.75957505 309.77062885 -302.50102638 335.19456872 -289 357 C-286.55516102 360.56706015 -283.90676308 363.80099503 -281 367 C-280.18917969 367.90363281 -279.37835938 368.80726563 -278.54296875 369.73828125 C-260.82578444 388.49307518 -235.56808128 397.95334009 -210 399 C-178.497714 399.73870929 -148.20913419 390.34972753 -119.15625 378.9609375 C-118.48049927 378.69642792 -117.80474854 378.43191833 -117.10852051 378.15939331 C-113.80131569 376.86127263 -110.50076063 375.54916373 -107.20898438 374.21240234 C-83.57473931 364.79417435 -57.25654175 361.56405205 -32.125 366.625 C-31.42221924 366.76510498 -30.71943848 366.90520996 -29.99536133 367.04956055 C-12.32368692 371.14429153 3.65293623 380.15826541 19.63598633 388.39672852 C56.72879072 407.46821029 99.66229933 425.08506994 141.86083984 412.69335938 C167.83844915 404.2733171 187.53160458 386.55427388 199.9140625 362.31640625 C210.62180985 340.2831029 211.94148399 316.08305222 204.04956055 292.91625977 C193.32036864 263.20219102 168.44446329 242.64814519 144.06079102 224.1640625 C135.89012584 217.9537464 127.88436891 211.56911823 120 205 C119.11957031 204.27554687 118.23914063 203.55109375 117.33203125 202.8046875 C105.72285 192.93388623 96.6668212 179.87348749 89.625 166.4375 C89.1309668 165.49640381 88.63693359 164.55530762 88.12792969 163.58569336 C82.06444984 151.6589429 77.12657933 139.2253885 72.13916016 126.82006836 C64.76898481 108.5516548 56.73712978 91.19913908 44 76 C43.48050781 75.33355469 42.96101563 74.66710938 42.42578125 73.98046875 C26.18692153 53.89663973 -0.81518747 41.92997468 -26 39 C-41.31177254 37.95633497 -56.30977215 38.37385441 -71 43 Z " fill="#EF4A25" transform="translate(531,1194)"/>
<path d="M0 0 C10.09957463 -0.06297135 20.16475547 0.10924701 30.25839233 0.48680115 C31.73334462 0.53994005 33.20830547 0.59284177 34.68327391 0.64553028 C38.6910597 0.78938046 42.69871598 0.93658497 46.70635724 1.08439982 C51.0457034 1.24385088 55.38516371 1.40013892 59.72460938 1.55685425 C68.20602668 1.86366775 76.68733372 2.17343157 85.16860311 2.48430448 C92.06220395 2.7369385 98.95584161 2.98854417 105.84950638 3.23942757 C106.83290412 3.27521854 107.81630187 3.31100951 108.82949955 3.34788506 C110.8275569 3.42060195 112.82561431 3.49331722 114.82367177 3.56603087 C133.5259447 4.24678174 152.22809065 4.93097076 170.93019684 5.6162848 C186.96849571 6.20389678 203.00690998 6.78827086 219.04541016 7.37036133 C237.69287749 8.04713993 256.34026236 8.72612818 274.98752654 9.40848309 C276.97614696 9.48124463 278.96476752 9.5540025 280.95338821 9.62675667 C282.42088626 9.68044575 282.42088626 9.68044575 283.91803073 9.73521946 C290.80436096 9.9869999 297.69074821 10.23718097 304.57715988 10.48672295 C312.96741301 10.79079328 321.35757567 11.09723044 329.74763124 11.40670591 C334.02615434 11.56446113 338.30470938 11.72114729 342.58337784 11.87491417 C346.50255632 12.01579123 350.42160777 12.15978239 354.34058233 12.3062197 C355.75545066 12.35854838 357.17036104 12.40975543 358.58531539 12.45970409 C378.92147297 13.17938161 378.92147297 13.17938161 382.875 16.1875 C389.9388434 26.51378529 388.47859921 42.38224292 388.5625 54.3125 C388.6882275 68.13363469 389.08786941 81.73358213 391.62573242 95.35961914 C392 98 392 98 391.0234375 99.828125 C382.63782203 107.06121512 370.50051902 106.30068317 359.9675293 106.22705078 C358.28219086 106.22748886 358.28219086 106.22748886 356.56280518 106.22793579 C352.89986064 106.22655776 349.23712714 106.2110693 345.57421875 106.1953125 C343.01447155 106.19157693 340.4547229 106.18873253 337.89497375 106.18673706 C331.87819251 106.17991689 325.86149994 106.16420213 319.84475404 106.14403808 C312.98606877 106.12155922 306.12737966 106.11065574 299.26866663 106.10064721 C285.17907033 106.07983175 271.08953925 106.04473129 257 106 C257.03752286 107.50838015 257.03752286 107.50838015 257.07580376 109.04723263 C257.94050123 144.20614398 258.45568877 179.36903014 258.94204187 214.53470159 C259.00847796 219.33771452 259.07547018 224.14071961 259.14254379 228.94372368 C259.32923403 242.32002588 259.51523029 255.69633732 259.69854927 269.0726862 C259.71013616 269.91806473 259.72172304 270.76344325 259.73366105 271.63443932 C259.7452682 272.48134401 259.75687535 273.3282487 259.76883423 274.20081717 C259.79234009 275.91586055 259.81584717 277.63090392 259.83935547 279.34594727 C259.85684437 280.62191544 259.85684437 280.62191544 259.87468658 281.92366075 C260.06506046 295.80285312 260.26070388 309.68196605 260.45850994 323.5610543 C260.66292358 337.9091151 260.86296144 352.25723151 261.05862701 366.60541433 C261.16806845 374.62334435 261.27934962 382.64123905 261.39551163 390.65907478 C261.49396637 397.45599252 261.58841415 404.25295126 261.67769374 411.04999597 C261.72324562 414.50897566 261.7706335 417.96790314 261.82316208 421.42678452 C261.87921743 425.18393262 261.92804796 428.94110972 261.97512817 432.69837952 C261.99292269 433.77666883 262.0107172 434.85495814 262.02905095 435.96592289 C262.10748561 443.0315128 261.70421107 449.9698264 261 457 C259.67742187 456.75636719 259.67742187 456.75636719 258.328125 456.5078125 C252.49943325 455.68057089 246.62411277 455.85592821 240.75 455.875 C239.6053125 455.87113281 238.460625 455.86726563 237.28125 455.86328125 C230.46702207 455.87078591 223.6947488 456.09693336 216.89453125 456.4921875 C207.46174221 457.03282893 198.04637173 457.21930776 188.59887695 457.24023438 C185.90741952 457.25011038 183.21667616 457.28137844 180.52539062 457.3125 C160.60777582 457.43799991 160.60777582 457.43799991 153.4765625 452.1171875 C137.78278683 429.61447212 145.88396308 377.68704008 145.95540047 351.36061859 C145.97400879 344.47440576 145.98337635 337.58819763 145.99131775 330.70196533 C146.01522735 311.13608545 146.05094049 291.57023691 146.09594727 272.00439453 C146.12081374 261.15887545 146.13798209 250.31336877 146.14750665 239.46782517 C146.15287701 233.76694804 146.16192079 228.06613718 146.18089485 222.36528778 C146.29529518 187.22350205 146.14424867 151.92932843 142.3671875 116.94921875 C142.02275109 113.24469526 141.93134047 109.71251883 142 106 C141.20949375 106.0072708 140.4189875 106.01454161 139.60452652 106.02203274 C131.79480649 106.06249477 124.04446522 105.82527039 116.24902344 105.37329102 C115.04904221 105.30662231 113.84906097 105.23995361 112.61271667 105.17126465 C109.36748984 104.99009772 106.12247012 104.80568379 102.87753201 104.61942792 C100.16059577 104.46390731 97.44353177 104.31068531 94.72646642 104.15743965 C88.32510203 103.79635455 81.92395925 103.43151862 75.52294922 103.06420898 C68.9195475 102.68534691 62.31581723 102.31266171 55.71189666 101.94296318 C50.02654474 101.62448822 44.34140612 101.30239181 38.65642762 100.97731918 C35.2668898 100.78352982 31.87728886 100.59109887 28.48748016 100.40210152 C24.72412777 100.19125734 20.96116359 99.97448613 17.19824219 99.75610352 C16.07212021 99.69424362 14.94599823 99.63238373 13.78575134 99.56864929 C12.76822281 99.50837555 11.75069427 99.44810181 10.70233154 99.38600159 C9.81309368 99.33530297 8.92385582 99.28460436 8.00767136 99.23236942 C6 99 6 99 5 98 C4.79283326 96.09871626 4.65113388 94.19026732 4.53515625 92.28125 C4.45837646 91.05486816 4.38159668 89.82848633 4.30249023 88.56494141 C4.22239372 87.20996683 4.14239977 85.85498619 4.0625 84.5 C3.97704407 83.1072345 3.89118165 81.71449389 3.80493164 80.32177734 C3.57760974 76.63285198 3.35593513 72.9436075 3.13537598 69.25427246 C2.91398855 65.5677426 2.68723228 61.8815438 2.4609375 58.1953125 C2.03826021 51.29803725 1.6235791 44.40030574 1.21115112 37.50241089 C1.02983567 34.49489099 0.84393685 31.48773221 0.65454102 28.48071289 C0.21611253 21.46103018 -0.14990635 14.47255128 -0.0625 7.4375 C-0.04130805 4.95833637 -0.02044691 2.47916988 0 0 Z " fill="#ffffff" transform="translate(998,1009)"/>
<path d="M0 0 C3.45762097 2.88050707 6.75316993 5.88502089 10 9 C10.71027344 9.65871094 11.42054688 10.31742188 12.15234375 10.99609375 C24.33042849 22.61319186 31.8448593 37.93575957 38.3125 53.25 C38.87656991 54.56813973 39.44127781 55.88600662 40.0065918 57.20361328 C43.08528679 64.39770499 46.09166201 71.62044098 49.06933594 78.85693359 C64.33067807 115.90734825 84.83722279 139.8214986 116.48095703 163.94238281 C145.46964202 186.04793902 172.07704271 209.07760822 178.6875 246.9375 C180.96198728 270.55345304 174.52145941 294.0605379 159.625 312.6875 C158.09889019 314.47175773 156.55802137 316.24353873 155 318 C154.07767578 319.06541016 154.07767578 319.06541016 153.13671875 320.15234375 C139.36566385 335.04395558 117.42716807 344.15709179 97.39038086 345.1262207 C57.26669205 346.18662527 24.75626816 331.8443569 -10.37841797 313.69433594 C-47.35830691 294.63919666 -82.62293318 287.57780699 -123 300 C-129.21148853 302.09619963 -135.32519989 304.45494428 -141.43960571 306.81652832 C-157.41279253 312.9692999 -173.33566648 318.97910673 -190 323 C-191.28269775 323.32363525 -191.28269775 323.32363525 -192.59130859 323.65380859 C-214.32224295 328.97973877 -240.58769203 330.23034289 -262 323 C-262.66225586 322.78037598 -263.32451172 322.56075195 -264.00683594 322.33447266 C-287.36722132 314.34216647 -304.08348841 298.07150046 -315.01953125 276.25 C-317.69543909 270.6707134 -319.59305113 265.02422857 -321 259 C-321.33451172 257.57880859 -321.33451172 257.57880859 -321.67578125 256.12890625 C-325.93348817 234.78244368 -322.10445816 212.32421819 -310.375 193.9375 C-302.49977535 182.8071825 -293.88030445 173.2554026 -283 165 C-282.11602539 164.31325195 -281.23205078 163.62650391 -280.32128906 162.91894531 C-273.48759019 157.67414684 -266.44654547 153.02517376 -259.04150391 148.62695312 C-257.19950547 147.5324978 -255.3628397 146.4295409 -253.52734375 145.32421875 C-251.10612674 143.86645726 -248.68367686 142.41079672 -246.25976562 140.95751953 C-231.49354834 132.09026892 -217.58967389 122.85892997 -205 111 C-203.91138672 110.02546875 -203.91138672 110.02546875 -202.80078125 109.03125 C-187.02787826 94.30609819 -177.18127527 73.7073554 -167.14208984 54.93896484 C-157.98273029 37.84857496 -148.96317682 21.63025395 -135 8 C-134.27683594 7.2678125 -133.55367187 6.535625 -132.80859375 5.78125 C-98.00855695 -27.49999961 -37.656062 -29.51119526 0 0 Z M-107 44 C-107.59167969 44.49757813 -108.18335938 44.99515625 -108.79296875 45.5078125 C-117.84552459 53.75247434 -123.35581911 65.54683408 -129.0625 76.1875 C-133.22350164 83.94396838 -137.44542569 91.14596105 -143 98 C-143.43828125 98.61101562 -143.8765625 99.22203125 -144.328125 99.8515625 C-151.42015834 109.20791974 -163.13238104 115.15721479 -173.0625 121 C-191.59001097 131.90961808 -208.53361922 144.89737586 -214.71875 166.51171875 C-217.772529 180.27381492 -215.15159998 193.92860503 -208.3125 206.125 C-199.46169957 219.92248839 -187.6691377 228.20796906 -171.78125 232.0859375 C-146.53681855 237.46363453 -121.46492303 227.08515375 -98.27954102 218.2722168 C-97.53115967 217.99031494 -96.78277832 217.70841309 -96.01171875 217.41796875 C-95.35647217 217.16813232 -94.70122559 216.9182959 -94.02612305 216.66088867 C-87.94111229 214.67605627 -81.90074976 214.74644219 -75.5625 214.6875 C-74.55767578 214.65849609 -73.55285156 214.62949219 -72.51757812 214.59960938 C-59.02458513 214.48823864 -47.73316957 219.20995446 -36.03613281 225.37097168 C-32.77285222 227.08536123 -29.48470752 228.75046513 -26.1953125 230.4140625 C-25.56063049 230.73536133 -24.92594849 231.05666016 -24.27203369 231.38769531 C-5.22582517 240.96307101 16.25868369 246.86676562 37.4375 241.4375 C54.02812469 235.92019774 64.19462751 225.8263251 72.25390625 210.63671875 C78.16434544 197.65992423 78.06851009 183.13417965 73.3125 169.875 C65.86805858 152.74183702 50.84284693 140.94712667 36.375 129.9375 C19.19901976 116.83514664 10.18479151 103.32905877 1.8828125 83.6796875 C1.60561371 83.02705429 1.32841492 82.37442108 1.04281616 81.70201111 C-0.35157508 78.4169288 -1.73033054 75.12696937 -3.08056641 71.82348633 C-10.109601 54.92647984 -21.23517138 40.94902341 -38 33 C-62.02594046 23.53960568 -87.30935653 26.79458338 -107 44 Z " fill="#EF4A25" transform="translate(555,1259)"/>
<path d="M0 0 C0.6815918 0.32629395 1.36318359 0.65258789 2.06542969 0.98876953 C38.76477574 18.88742647 62.02234295 51.82321865 76.875 89.25 C77.14924805 89.93384766 77.42349609 90.61769531 77.70605469 91.32226562 C82.90917085 105.01195512 83.4117497 117.71663471 83.29296875 132.17578125 C83.28736211 134.19744042 83.28309707 136.2191037 83.28010559 138.24076843 C83.26874089 143.51955748 83.2393473 148.79809244 83.20599365 154.07678223 C83.17511063 159.48018966 83.16156157 164.88363881 83.14648438 170.28710938 C83.11446835 180.85818355 83.06337528 191.42907051 83 202 C79.41817751 202.78375652 75.93145705 203.23114728 72.27601624 203.49989319 C71.13348892 203.58540939 69.99096161 203.6709256 68.81381226 203.7590332 C66.94736557 203.89390137 66.94736557 203.89390137 65.04321289 204.03149414 C63.71230655 204.12989912 62.38142017 204.22857451 61.05055237 204.32749939 C57.44333196 204.59479949 53.83583363 204.8581572 50.22826314 205.12068486 C46.44861359 205.3962844 42.66920186 205.67510993 38.88975525 205.95347595 C32.54230397 206.42047599 26.19467216 206.8849566 19.84692383 207.34790039 C12.51504433 207.8826442 5.18344963 208.42116248 -2.14800066 208.96175677 C-9.20807543 209.48226935 -16.26833081 210.00029072 -23.32867622 210.51711845 C-26.32977542 210.73683573 -29.33081165 210.95738636 -32.33180046 211.17860603 C-35.86846283 211.43918608 -39.40527921 211.69756864 -42.9422245 211.95427895 C-44.85435036 212.09356842 -46.76631998 212.23499758 -48.67828369 212.37649536 C-50.3963044 212.50053993 -50.3963044 212.50053993 -52.14903259 212.62709045 C-53.63536147 212.73575738 -53.63536147 212.73575738 -55.15171719 212.84661961 C-58.10669479 213.00574553 -61.04132755 213.02617657 -64 213 C-63.51197501 236.72987834 -62.26867427 258.03029786 -48 278 C-47.56300781 278.63421875 -47.12601563 279.2684375 -46.67578125 279.921875 C-38.02749135 291.24516147 -22.66348314 298.44015184 -9 301 C6.50421169 302.59817252 18.40916408 299.35487342 31 290 C33.49298893 287.79393999 35.74741322 285.44658947 38 283 C39.66666667 281.33333333 41.33333333 279.66666667 43 278 C44.30057684 276.65470616 45.59994495 275.30824324 46.8984375 273.9609375 C54.0059255 266.64658205 61.07434137 259.48684613 69.3125 253.4375 C69.91562012 252.99132324 70.51874023 252.54514648 71.14013672 252.08544922 C74.31781527 249.84603676 77.04778185 248.07482685 81 248 C82.5625 249.1171875 82.5625 249.1171875 84 250.875 C90.1500723 257.53757832 98.04586054 262.19227924 105.71484375 266.92578125 C131.64521978 282.93565934 131.64521978 282.93565934 135 293 C136.27805326 304.38923411 133.456126 311.38606739 126.50390625 320.22265625 C123.77736897 323.58119846 120.91541216 326.80512593 118 330 C117.2059375 330.87785156 116.411875 331.75570313 115.59375 332.66015625 C90.24129272 359.32249049 52.65008403 373.21937261 16.35546875 374.28515625 C-32.83756268 375.25706232 -82.90764839 360.4452685 -119.10546875 325.83203125 C-119.5751709 325.37135254 -120.04487305 324.91067383 -120.52880859 324.43603516 C-122.08097444 322.92096056 -123.65841536 321.43535186 -125.23828125 319.94921875 C-158.39657919 288.32715612 -172.19926974 242.51095816 -173.28125 197.59375 C-173.94319475 161.91571574 -169.17310168 126.66643603 -157 93 C-156.69868164 92.16210938 -156.39736328 91.32421875 -156.08691406 90.4609375 C-149.59412735 72.70711649 -141.2542565 55.2524792 -130 40 C-129.59845703 39.45327637 -129.19691406 38.90655273 -128.78320312 38.34326172 C-111.57799951 15.11623683 -89.49202673 -3.40685662 -60.4375 -9.25 C-39.65963345 -12.22212655 -18.92215636 -9.0609707 0 0 Z " fill="#ffffff" transform="translate(2020,1093)"/>
<path d="M0 0 C0.76180069 -0.00014603 1.52360138 -0.00029205 2.30848694 -0.0004425 C4.80277448 0.00024889 7.29698543 0.00800478 9.79125977 0.01586914 C11.53003397 0.01773607 13.2688087 0.01915867 15.00758362 0.02015686 C19.56628899 0.02396039 24.12496209 0.03377205 28.68365479 0.04486084 C33.34256555 0.05512164 38.00148157 0.05966446 42.66040039 0.06469727 C51.78866971 0.07539639 60.91691517 0.09244663 70.04516602 0.11352539 C70.46028442 0.95161743 70.46028442 0.95161743 70.88378906 1.80664062 C72.16454169 4.38920301 73.44858611 6.97011585 74.73266602 9.55102539 C75.16772461 10.42952148 75.6027832 11.30801758 76.05102539 12.21313477 C78.90123017 17.93465695 81.88904914 23.5548517 85.04516602 29.11352539 C85.91012695 28.65204102 86.77508789 28.19055664 87.66625977 27.71508789 C111.8207097 15.09576768 138.07719639 5.45200184 165.04516602 1.11352539 C166.22272461 0.91823242 166.22272461 0.91823242 167.42407227 0.71899414 C180.07119244 -1.02784566 194.26300195 -1.63038643 205.04516602 6.11352539 C207.03136664 8.13575058 208.62657066 10.34535256 210.23266602 12.67602539 C210.69552002 13.32949951 211.15837402 13.98297363 211.63525391 14.65625 C251.68449368 71.90109097 251.68449368 71.90109097 251.17016602 92.98852539 C251.15211914 93.95532227 251.13407227 94.92211914 251.11547852 95.91821289 C251.08067383 97.00489258 251.08067383 97.00489258 251.04516602 98.11352539 C249.95204102 98.24887695 248.85891602 98.38422852 247.73266602 98.52368164 C196.86092135 105.38147451 145.4263412 131.17519296 108.04516602 166.11352539 C107.13508789 166.95786133 106.22500977 167.80219727 105.28735352 168.67211914 C91.43737586 181.96269659 79.24820719 199.50572455 78.60766602 219.23852539 C78.70323684 224.59049137 79.47032721 229.11644358 80.98266602 234.23852539 C84.53582447 246.47855967 83.91500959 259.47667187 84.04516602 272.11352539 C84.0603125 273.26288574 84.07545898 274.41224609 84.09106445 275.59643555 C84.69447455 326.06948228 84.69447455 326.06948228 75.04516602 340.11352539 C67.32882717 343.97169481 55.60483424 342.46131226 47.04516602 342.67602539 C45.85330185 342.70729523 45.85330185 342.70729523 44.63735962 342.73919678 C31.59446013 343.07880701 18.55369262 343.34485146 5.50610352 343.14624023 C3.39430637 343.11816674 1.28212293 343.1224117 -0.82983398 343.13305664 C-13.21558753 342.83748752 -25.10994763 338.99626612 -37.00561523 335.81665039 C-39.42552083 335.23971926 -41.64197525 334.89362322 -44.11108398 334.70727539 C-46.95483398 334.11352539 -46.95483398 334.11352539 -48.52832031 332.09399414 C-56.8696751 314.66608738 -53.38365305 289.28866435 -53.28144836 270.42004395 C-53.26720097 267.58707676 -53.25804382 264.75413472 -53.25036621 261.92114258 C-53.17142406 234.28236365 -52.91703708 206.69314607 -50.95483398 179.11352539 C-50.8460281 177.50562078 -50.73730451 175.89771059 -50.62866211 174.28979492 C-48.62474706 145.41123902 -44.73752511 116.72241197 -40.89838982 88.04195118 C-37.84420632 65.2091491 -35.17908013 42.37468358 -33.71725464 19.37567139 C-33.64088776 18.20941223 -33.56452087 17.04315308 -33.48583984 15.84155273 C-33.42464462 14.80960785 -33.3634494 13.77766296 -33.30039978 12.71444702 C-32.95483398 10.11352539 -32.95483398 10.11352539 -31.20483398 7.05102539 C-21.7844045 1.43500012 -10.80084474 -0.05514418 0 0 Z " fill="#ffffff" transform="translate(2223.954833984375,1105.886474609375)"/>
<path d="M0 0 C0.74894531 0.6084375 1.49789062 1.216875 2.26953125 1.84375 C7.01771126 5.83839475 11.05648631 10.22067416 15 15 C15.42265137 15.49967285 15.84530273 15.9993457 16.28076172 16.51416016 C24.89614291 26.71887376 32.21761044 37.50154029 39 49 C39.4031543 49.68223633 39.80630859 50.36447266 40.22167969 51.06738281 C57.34814698 80.54593137 69.85475592 116.69247085 71 151 C71.03996094 151.98097656 71.07992187 152.96195313 71.12109375 153.97265625 C71.89744723 190.82661268 58.03709765 225.20923182 32.6875 251.75 C9.5445097 274.10514382 -17.97496175 282.60652718 -49.69140625 282.2734375 C-58.27186667 282.05238751 -65.91701236 280.83331701 -74 278 C-74.69448242 277.76394043 -75.38896484 277.52788086 -76.10449219 277.28466797 C-103.37942986 267.76115867 -126.41567055 246.4644442 -139.234375 220.6328125 C-161.15040608 174.22060818 -153.4406565 123.98960738 -137 77 C-126.7282309 49.05377959 -113.19622402 22.22762583 -92 1 C-90.80310547 -0.21429687 -90.80310547 -0.21429687 -89.58203125 -1.453125 C-62.12104754 -27.79416647 -27.73387354 -22.88355485 0 0 Z " fill="#EF4A25" transform="translate(709,905)"/>
<path d="M0 0 C12.78834352 9.35173655 22.40052678 21.21953567 30.3984375 34.75390625 C30.74261719 35.33237305 31.08679688 35.91083984 31.44140625 36.50683594 C58.248928 82.23882466 70.86151275 149.39391909 58.26904297 201.26928711 C52.44812807 223.23140041 41.80204108 242.18319214 26.3984375 258.75390625 C25.72296875 259.51058594 25.0475 260.26726562 24.3515625 261.046875 C5.51577355 281.21082856 -21.96836742 291.66109113 -49.07421875 292.71484375 C-77.26689972 293.28784094 -103.71856353 282.0592513 -124.05175781 262.7722168 C-147.98746234 239.25535463 -161.34740921 206.67821624 -161.84326172 173.15795898 C-161.97644365 129.5722119 -143.8810248 87.70581874 -118.6015625 52.75390625 C-118.1674707 52.1515918 -117.73337891 51.54927734 -117.28613281 50.92871094 C-111.71270913 43.27328578 -105.61054062 36.12868597 -99.06982422 29.28955078 C-98.07177451 28.24569766 -97.0787746 27.19699779 -96.09033203 26.14404297 C-72.04099327 0.59209485 -33.8413898 -21.84905264 0 0 Z " fill="#EF4A25" transform="translate(414.6015625,878.24609375)"/>
<path d="M0 0 C16.05481557 14.9807258 24.09459515 37.93568979 28.625 58.875 C28.78000977 59.58897949 28.93501953 60.30295898 29.09472656 61.03857422 C32.0445594 75.56601896 32.81194598 89.84859202 32.75 104.625 C32.74817719 105.52825012 32.74635437 106.43150024 32.74447632 107.36212158 C32.69957199 120.57862074 32.36213071 133.49445346 29.4375 146.4375 C29.26057617 147.241875 29.08365234 148.04625 28.90136719 148.875 C21.95468315 179.58918156 5.88178984 207.44800827 -21.05957031 224.81396484 C-44.08462509 239.09416014 -69.74897684 244.99817636 -96.5625 239.4375 C-120.14126096 233.27458576 -140.00652875 219.5261807 -152.7265625 198.51464844 C-162.27565803 181.76199569 -166.97948491 163.52065133 -166.875 144.25 C-166.87008545 143.16283691 -166.8651709 142.07567383 -166.86010742 140.95556641 C-166.23454063 97.55085487 -139.28402872 60.78423766 -110.5625 30.4375 C-110.07297852 29.91397949 -109.58345703 29.39045898 -109.07910156 28.85107422 C-92.71622763 11.44500088 -73.24481526 -2.74558061 -50.5625 -10.5625 C-49.7890625 -10.82933594 -49.015625 -11.09617187 -48.21875 -11.37109375 C-30.55821919 -16.29566484 -13.79724254 -11.35398084 0 0 Z " fill="#EF4A25" transform="translate(897.5625,1158.5625)"/>
<path d="M0 0 C8.71745613 5.88205905 16.41358715 12.7622663 24 20 C24.78117188 20.72832031 25.56234375 21.45664063 26.3671875 22.20703125 C32.9859062 28.55487712 38.51313887 35.67896517 44 43 C44.43489746 43.57943359 44.86979492 44.15886719 45.31787109 44.75585938 C51.82091155 53.48576579 57.64593722 62.52396209 63 72 C63.40750488 72.71784668 63.81500977 73.43569336 64.23486328 74.17529297 C75.54521991 94.30241856 85.07638721 116.60180941 86 140 C86.0515625 140.9075 86.103125 141.815 86.15625 142.75 C86.94552514 168.53298802 79.2970704 193.87356333 63 214 C62.26136719 214.91523437 61.52273437 215.83046875 60.76171875 216.7734375 C47.65132096 232.09393508 28.2272622 243.62619673 8 246 C-15.41635096 247.78778622 -34.64407662 244.53945557 -55 233 C-55.96035156 232.47921875 -56.92070312 231.9584375 -57.91015625 231.421875 C-80.45107406 218.27577271 -96.07229736 195.21007993 -104.4375 170.9375 C-104.77152832 169.98677612 -104.77152832 169.98677612 -105.11230469 169.0168457 C-109.8271123 154.21678128 -110.54666424 138.89882724 -110.4375 123.5 C-110.43293793 122.12769226 -110.43293793 122.12769226 -110.42828369 120.72766113 C-110.23443826 81.13667008 -101.20016102 34.84848029 -73 5 C-51.42869912 -16.01342241 -24.76856148 -15.32858278 0 0 Z " fill="#EF4A25" transform="translate(185,1117)"/>
<path d="M0 0 C1.34707283 -0.00855011 1.34707283 -0.00855011 2.72135925 -0.01727295 C4.6181828 -0.02667551 6.51502233 -0.03323794 8.41186523 -0.03710938 C11.24689173 -0.04671882 14.08116169 -0.07774759 16.91601562 -0.109375 C33.14547028 -0.20347496 52.68096827 -0.14053532 66.60546875 9.328125 C68.67255824 11.39521449 69.43129204 12.37611902 69.60466725 15.29177439 C69.60428753 16.16285283 69.60390781 17.03393127 69.60351658 17.93140602 C69.60550763 18.93512265 69.60749868 19.93883928 69.60955006 20.97297156 C69.60663722 22.08384804 69.60372438 23.19472451 69.60072327 24.33926392 C69.60157769 25.51295229 69.60243212 26.68664067 69.60331243 27.89589536 C69.60467909 31.16364298 69.60153737 34.43135133 69.59653437 37.6990943 C69.59222873 41.2192011 69.59367638 44.73930597 69.59443665 48.25941467 C69.59496181 54.36155256 69.59181581 60.46367977 69.58619881 66.56581497 C69.57808277 75.38855238 69.57546848 84.21128462 69.57421082 93.03402536 C69.57202046 107.34723077 69.56536082 121.66043049 69.5559082 135.97363281 C69.54673366 149.88020804 69.53965303 163.78678173 69.53540039 177.69335938 C69.53513767 178.55010166 69.53487494 179.40684394 69.53460426 180.28954811 C69.53329925 184.58743529 69.53203554 188.88532247 69.53079236 193.18320966 C69.52042025 228.85651883 69.50280238 264.52982139 69.48046875 300.203125 C65.3002094 302.03476248 61.53938849 303.59248524 57.0234375 304.30078125 C56.00693115 304.4615918 54.9904248 304.62240234 53.94311523 304.78808594 C52.32191772 305.02446777 52.32191772 305.02446777 50.66796875 305.265625 C49.527229 305.43481445 48.38648926 305.60400391 47.21118164 305.77832031 C-16.52678608 314.85563533 -16.52678608 314.85563533 -32.51953125 304.203125 C-33.51953125 303.203125 -33.51953125 303.203125 -33.61528015 300.05561829 C-33.6064288 298.60254853 -33.59179588 297.14950832 -33.57299805 295.6965332 C-33.56655777 294.89251163 -33.56011749 294.08849005 -33.55348206 293.26010418 C-33.53011537 290.5079713 -33.49937231 287.75596736 -33.46875 285.00390625 C-33.4500165 282.99202849 -33.43170385 280.98014678 -33.41377258 278.96826172 C-33.36219486 273.34437804 -33.30395344 267.72057974 -33.2444458 262.09677505 C-33.19438454 257.30513921 -33.14762748 252.51347341 -33.10084343 247.72180462 C-32.97296789 234.63909295 -32.83770695 221.55646772 -32.69984794 208.47385824 C-32.55822269 195.02297808 -32.42210587 181.5720468 -32.28759766 168.12109375 C-32.101193 149.49191255 -31.91046151 130.86278009 -31.71504116 112.23369122 C-31.6932138 110.15240672 -31.67138897 108.0711222 -31.64956665 105.98983765 C-31.6387762 104.9609916 -31.62798575 103.93214555 -31.61686832 102.87212235 C-31.54057403 95.57822753 -31.46646301 88.28431237 -31.39315796 80.99038696 C-31.30269721 71.99713707 -31.20874926 63.00393126 -31.11051375 54.01076281 C-31.05968114 49.34932821 -31.01041219 44.68789024 -30.96517372 40.02639771 C-30.92326372 35.71344047 -30.87695751 31.40055348 -30.82716811 27.08768022 C-30.80979882 25.51626624 -30.79404124 23.94483348 -30.78002393 22.37338603 C-30.76071129 20.23556895 -30.73558124 18.09789637 -30.70898438 15.9601593 C-30.6964563 14.76810536 -30.68392822 13.57605143 -30.67102051 12.34787464 C-30.53473969 9.51883546 -30.16607045 6.95490165 -29.51953125 4.203125 C-27.68783807 3.71772631 -25.85407066 3.24015314 -24.01953125 2.765625 C-22.99859375 2.49878906 -21.97765625 2.23195313 -20.92578125 1.95703125 C-13.94199682 0.41130832 -7.12435081 0.0360586 0 0 Z " fill="#ffffff" transform="translate(1425.51953125,1156.796875)"/>
<path d="M0 0 C4.91036694 4.25664184 9.05301969 8.84221862 12.89453125 14.078125 C14.9152689 16.79349122 15.99696515 17.83492588 19.26953125 18.92578125 C18.60953125 19.25578125 17.94953125 19.58578125 17.26953125 19.92578125 C19.22899201 26.02423132 21.69813538 31.85252123 24.21777344 37.73706055 C25.00898719 39.58860673 25.79175872 41.44356901 26.57421875 43.29882812 C35.43636663 64.04026217 46.69110098 78.25265572 64.70898438 91.75 C79.85391471 103.16082361 94.99266875 115.43824359 99.26953125 134.92578125 C100.37590641 150.44664422 98.19894049 163.01795316 88.29296875 175.59375 C80.71336902 184.32931185 69.95633309 190.8209728 58.26953125 191.92578125 C33.95432483 193.55187656 14.21497507 184.55043801 -7.04296875 173.67578125 C-26.26133406 163.8599902 -44.94122266 159.86945929 -66.125 165.890625 C-71.7781916 167.74178035 -77.34715707 169.77457005 -82.90625 171.890625 C-105.03230443 180.26264559 -129.73969682 187.62888776 -152.69140625 177.63671875 C-165.07126306 171.29416197 -172.99930898 162.3927698 -178.16796875 149.42578125 C-181.67284841 137.78836698 -181.47339209 123.74503861 -175.73046875 112.92578125 C-175.25609375 112.01699219 -174.78171875 111.10820313 -174.29296875 110.171875 C-165.74349037 95.39525252 -150.75014736 86.45289872 -136.27758789 78.2265625 C-117.89900768 67.74930513 -106.41424427 54.59801525 -96.06103516 36.26806641 C-94.67219755 33.82320256 -93.25552125 31.39587227 -91.8359375 28.96875 C-90.90393765 27.35084196 -89.97292059 25.73236732 -89.04296875 24.11328125 C-88.59646973 23.35466797 -88.1499707 22.59605469 -87.68994141 21.81445312 C-87.28694824 21.10224609 -86.88395508 20.39003906 -86.46875 19.65625 C-85.927948 18.71881958 -85.927948 18.71881958 -85.3762207 17.76245117 C-84.56739958 15.4619743 -84.94880787 14.19488665 -85.73046875 11.92578125 C-84.97121094 11.83554688 -84.21195312 11.7453125 -83.4296875 11.65234375 C-80.22948121 10.79092788 -79.50110172 9.90826937 -77.54296875 7.30078125 C-58.83361272 -15.2878365 -22.80609408 -17.32480108 0 0 Z M-64.5234375 29.0390625 C-68.71872476 34.75118131 -72.10879126 40.97632304 -75.44726562 47.21655273 C-79.41142522 54.51757436 -83.98809304 59.50666336 -90.98046875 63.92578125 C-91.64506104 64.35874512 -92.30965332 64.79170898 -92.99438477 65.23779297 C-95.79064726 67.057491 -98.60449055 68.84665746 -101.4296875 70.62109375 C-110.94484719 76.69883973 -118.1295401 83.89097647 -121.32421875 94.98828125 C-122.81111272 103.36895637 -120.12922225 111.82953431 -115.73046875 118.92578125 C-110.46343771 126.38740855 -103.54614924 130.44468145 -94.69921875 132.3671875 C-82.90149901 134.23515979 -71.65925675 130.37627894 -60.79296875 126.23828125 C-50.365439 122.3454568 -39.50518744 120.41700544 -28.73046875 124.42578125 C-27.04856609 125.22791944 -25.38408904 126.06685042 -23.73046875 126.92578125 C-2.18472279 137.57931551 -2.18472279 137.57931551 21.45703125 136.86328125 C30.1342077 133.854822 35.77522485 128.31023456 40.1171875 120.3359375 C43.94644839 112.32694099 44.43449461 104.91360785 41.83203125 96.48828125 C37.76597455 86.21538181 28.46302536 78.56601737 19.79296875 72.0703125 C9.1831163 64.04080181 4.46197146 54.88917097 -0.27172852 42.67700195 C-4.63096287 31.78346641 -11.56871504 23.03192339 -22.41796875 18.11328125 C-37.67845558 12.64254069 -53.97425469 16.60527623 -64.5234375 29.0390625 Z " fill="#EF4A25" transform="translate(525.73046875,1304.07421875)"/>
<path d="M0 0 C7.46397239 6.33980141 10.58809587 14.64485144 14.1875 23.5 C19.58805901 36.72588482 27.43168901 44.854083 38.8125 53.375 C46.33686733 59.18628895 52.444819 65.34526371 54.25 74.9375 C55.08073895 82.69106355 52.56082446 90.19690876 47.83984375 96.3671875 C42.49511794 101.64625329 35.68648841 104.03931462 28.3125 104.25 C16.45556739 104.04745056 6.34629151 98.80577166 -3.97607422 93.46728516 C-14.95582752 87.95126125 -26.02063853 86.39304343 -37.95458984 89.87158203 C-41.30345053 91.02913277 -44.6197197 92.25636936 -47.9375 93.5 C-59.94272671 97.73709049 -71.30275183 100.97228771 -83.8125 96.5 C-89.58970206 93.34164635 -94.43248558 88.11326766 -96.94921875 82.046875 C-98.62882503 75.5250867 -99.05327345 67.88895174 -96.25 61.625 C-90.85077825 52.80994408 -83.00161621 48.10021329 -74.33227539 42.93432617 C-62.97091631 36.13732499 -57.19443796 28.83130644 -50.7109375 17.328125 C-50.36353516 16.71332275 -50.01613281 16.09852051 -49.65820312 15.46508789 C-48.67585293 13.71556676 -47.7085939 11.9575972 -46.7421875 10.19921875 C-42.11183277 2.61814777 -36.51985055 -2.89461926 -27.8125 -5.375 C-17.81981691 -7.4008071 -8.39692277 -5.97364975 0 0 Z " fill="#EF4A25" transform="translate(508.75,1332.0625)"/>
<path d="M0 0 C8.57229502 7.01515528 13.24788091 18.57248935 14.75390625 29.33203125 C16.3194242 46.30423381 12.2311871 62.6338031 1.25 75.9375 C-7.71665351 85.2324125 -20.26117027 91.3816616 -33.19921875 92.203125 C-46.02766871 92.37551179 -56.44405873 89.77614662 -66.1953125 81.03125 C-71.55928726 75.4021358 -75.01772383 69.14445599 -78 62 C-78.34160156 61.18402344 -78.68320313 60.36804687 -79.03515625 59.52734375 C-83.46976444 46.51228436 -82.64980596 29.42610697 -77 17 C-75.19868222 13.50814068 -73.22049479 10.23923828 -71 7 C-70.4225 6.113125 -69.845 5.22625 -69.25 4.3125 C-50.790097 -14.66017808 -21.33093559 -13.82321959 0 0 Z " fill="#ffffff" transform="translate(1483,1030)"/>
<path d="M0 0 C8.58 0 17.16 0 26 0 C33.86787565 11.23982235 33.86787565 11.23982235 36.8671875 16.171875 C37.52589844 17.24953125 38.18460938 18.3271875 38.86328125 19.4375 C39.52714844 20.530625 40.19101563 21.62375 40.875 22.75 C46.45862949 31.92075492 52.19135251 40.96432613 58 50 C58.33 33.5 58.66 17 59 0 C67.25 0 75.5 0 84 0 C84 31.68 84 63.36 84 96 C58 96 58 96 52.70703125 91.59375 C51.14135742 88.68237305 51.14135742 88.68237305 49.8125 85.5 C48.68267828 83.3070503 47.5497666 81.11569031 46.4140625 78.92578125 C45.59276855 77.21962646 45.59276855 77.21962646 44.75488281 75.47900391 C41.80198085 69.62496203 38.22933168 64.20105126 34.6875 58.6875 C33.43888721 56.69298101 32.19259222 54.6970081 30.94921875 52.69921875 C29.33098273 50.10679716 27.69544421 47.54316631 26 45 C25.67 61.83 25.34 78.66 25 96 C16.75 96 8.5 96 0 96 C0 64.32 0 32.64 0 0 Z " fill="#ffffff" transform="translate(2380,1523)"/>
<path d="M0 0 C13.303125 -0.0928125 13.303125 -0.0928125 26.875 -0.1875 C31.04552002 -0.22846802 31.04552002 -0.22846802 35.30029297 -0.27026367 C37.53092008 -0.27903447 39.76155202 -0.286677 41.9921875 -0.29296875 C43.12857666 -0.30831665 44.26496582 -0.32366455 45.43579102 -0.33947754 C56.31157011 -0.34301246 66.35282444 1.75096256 74.5 9.41015625 C80.44844806 16.04904918 82.36508983 23.94098482 82.20703125 32.60546875 C81.51419481 40.61884114 78.06833375 46.75201507 72 52 C69.70788872 53.42851658 67.37699072 54.71198948 65 56 C69.60647931 65.44456931 74.42328522 74.72824513 79.58544922 83.88232422 C79.98650879 84.59404785 80.38756836 85.30577148 80.80078125 86.0390625 C81.15309814 86.65990723 81.50541504 87.28075195 81.8684082 87.92041016 C83.31419598 90.57741562 84.64722653 93.29445306 86 96 C76.1 96 66.2 96 56 96 C45.95621546 77.01311964 45.95621546 77.01311964 41.875 68.9375 C41.31554688 67.83277344 40.75609375 66.72804688 40.1796875 65.58984375 C39 63 39 63 39 61 C35.37 61 31.74 61 28 61 C28 72.55 28 84.1 28 96 C18.76 96 9.52 96 0 96 C0 64.32 0 32.64 0 0 Z M28 18 C28 26.25 28 34.5 28 43 C39.50760483 43.79212237 39.50760483 43.79212237 50 40 C53.28871898 36.39301789 53.4722756 32.84239655 53.27734375 28.1484375 C52.87325479 25.01817093 52.13374252 23.34023373 50 21 C43.35322466 16.6191708 35.661985 17.79658447 28 18 Z " fill="#ffffff" transform="translate(2143,1523)"/>
<path d="M0 0 C13.303125 -0.0928125 13.303125 -0.0928125 26.875 -0.1875 C31.04552002 -0.22846802 31.04552002 -0.22846802 35.30029297 -0.27026367 C37.53092008 -0.27903447 39.76155202 -0.286677 41.9921875 -0.29296875 C43.12857666 -0.30831665 44.26496582 -0.32366455 45.43579102 -0.33947754 C56.21532676 -0.34298118 65.75402842 1.69822364 74 9 C81.56356404 18.15254809 82.0032201 27.5075245 81 39 C79.43499101 45.75844648 74.46990853 50.04713642 69 54 C67.68352881 54.69937532 66.35438941 55.37722272 65 56 C66.44200051 59.81356229 68.17899107 63.34427936 70.1171875 66.9296875 C70.72433594 68.05503906 71.33148437 69.18039062 71.95703125 70.33984375 C72.43003662 71.21165283 72.43003662 71.21165283 72.91259766 72.10107422 C73.867658 73.86146702 74.81861142 75.62408591 75.76953125 77.38671875 C79.5251565 84.33720405 79.5251565 84.33720405 83.4453125 91.1953125 C85 94 85 94 85 96 C75.43 96 65.86 96 56 96 C54.14375 92.6175 52.2875 89.235 50.375 85.75 C49.46609009 84.10946655 49.46609009 84.10946655 48.53881836 82.43579102 C43.96266887 74.12687542 43.96266887 74.12687542 42.25390625 69.90234375 C41.81949219 68.84144531 41.38507812 67.78054688 40.9375 66.6875 C40.61652344 65.78386719 40.29554688 64.88023438 39.96484375 63.94921875 C37.15249168 60.74526085 37.15249168 60.74526085 27 61 C27 72.55 27 84.1 27 96 C18.09 96 9.18 96 0 96 C0 64.32 0 32.64 0 0 Z M27 18 C27 26.25 27 34.5 27 43 C29.495625 43.061875 31.99125 43.12375 34.5625 43.1875 C35.33408447 43.21481201 36.10566895 43.24212402 36.90063477 43.27026367 C42.0013691 43.33071586 45.48900693 42.42067179 50 40 C53.02571989 35.70542983 53.55531409 32.18293148 53 27 C51.64907826 22.86776878 50.76534885 21.41069856 46.90625 19.33984375 C42.76501702 17.68034694 38.96693484 17.65659487 34.5625 17.8125 C32.066875 17.874375 29.57125 17.93625 27 18 Z " fill="#ffffff" transform="translate(2048,1523)"/>
<path d="M0 0 C11.22 0 22.44 0 34 0 C40.71718427 20.06652517 47.38759374 40.14731462 53.97903442 60.25549316 C54.74066038 62.57799495 55.50324811 64.90018157 56.26681519 67.2220459 C57.34997541 70.51690304 58.42938534 73.81296611 59.5078125 77.109375 C59.83130173 78.09139893 60.15479095 79.07342285 60.48808289 80.08520508 C60.7899501 81.01067139 61.09181732 81.9361377 61.40283203 82.88964844 C61.66419952 83.68707458 61.92556702 84.48450073 62.19485474 85.30609131 C63.25015796 88.83699517 64.10619955 92.42479822 65 96 C55.43 96 45.86 96 36 96 C34.7625 91.8853125 34.7625 91.8853125 33.5 87.6875 C33.23896484 86.82729248 32.97792969 85.96708496 32.70898438 85.08081055 C32.50595703 84.39801025 32.30292969 83.71520996 32.09375 83.01171875 C31.88427734 82.31522217 31.67480469 81.61872559 31.45898438 80.90112305 C31 79 31 79 31 76 C20.77 76 10.54 76 0 76 C-1.23165811 81.08416624 -1.23165811 81.08416624 -2.45263672 86.17089844 C-2.61006348 86.8105957 -2.76749023 87.45029297 -2.9296875 88.109375 C-3.16534424 89.08342285 -3.16534424 89.08342285 -3.40576172 90.07714844 C-4 92 -4 92 -6 96 C-14.25 96 -22.5 96 -31 96 C-23.88491403 73.39985535 -16.67696367 50.83275248 -9.3125 28.3125 C-8.7858374 26.70195236 -8.7858374 26.70195236 -8.24853516 25.05886841 C-2.72915591 8.18746773 -2.72915591 8.18746773 0 0 Z M15 25 C12.57945077 31.18584803 10.62322892 37.423533 8.8125 43.8125 C8.40354492 45.22305664 8.40354492 45.22305664 7.98632812 46.66210938 C7.72916016 47.56380859 7.47199219 48.46550781 7.20703125 49.39453125 C6.9747583 50.20768799 6.74248535 51.02084473 6.50317383 51.85864258 C5.88562572 54.12012931 5.88562572 54.12012931 6 57 C12.27 57 18.54 57 25 57 C22.44111629 46.19582432 19.24577058 35.61450446 16 25 C15.67 25 15.34 25 15 25 Z " fill="#ffffff" transform="translate(2263,1523)"/>
<path d="M0 0 C23.1 0 46.2 0 70 0 C70 6.27 70 12.54 70 19 C55.81 19 41.62 19 27 19 C27 24.94 27 30.88 27 37 C39.21 37 51.42 37 64 37 C64 43.6 64 50.2 64 57 C51.79 57 39.58 57 27 57 C27 63.6 27 70.2 27 77 C41.19 77 55.38 77 70 77 C70 83.27 70 89.54 70 96 C46.9 96 23.8 96 0 96 C0 64.32 0 32.64 0 0 Z " fill="#ffffff" transform="translate(1964,1523)"/>
<path d="M0 0 C26.07 0 52.14 0 79 0 C79 6.93 79 13.86 79 21 C70.42 21 61.84 21 53 21 C53 45.75 53 70.5 53 96 C44.09 96 35.18 96 26 96 C26 71.25 26 46.5 26 21 C17.42 21 8.84 21 0 21 C0 14.07 0 7.14 0 0 Z " fill="#ffffff" transform="translate(1874,1523)"/>
<path d="M0 0 C8.91 0 17.82 0 27 0 C27 31.68 27 63.36 27 96 C18.09 96 9.18 96 0 96 C0 64.32 0 32.64 0 0 Z " fill="#ffffff" transform="translate(2337,1523)"/>
</svg>
